<svg preserveAspectRatio="xMidYMid meet" width="100%" height="100%" overflow="visible" style="display: block;" viewBox="0 0 60 21" fill="none" xmlns="http://www.w3.org/2000/svg">
<g id="Layer_1" clip-path="url(#clip0_0_4)">
<path id="Vector" d="M31.1052 18.7526L30.4725 12.072C30.1523 7.81776 26.5397 4.45245 22.1421 4.45245C17.7446 4.45245 13.9484 8.00055 13.8 12.4126C13.7922 12.4876 13.7883 12.5607 13.7844 12.6377C13.7043 13.8595 13.1576 15.0082 12.2769 15.876C10.2831 17.8406 7.03962 17.8386 5.04587 15.876C3.05212 13.9115 3.05212 10.7136 5.04587 8.75096C6.46551 7.35404 8.594 6.90379 10.4706 7.59841C10.5604 7.63112 10.6522 7.66767 10.7401 7.70808C11.6344 8.09868 12.687 7.70423 13.0853 6.81913C13.4837 5.93788 13.0795 4.90077 12.1851 4.50825C12.0308 4.4409 11.8766 4.37933 11.7223 4.32161C8.54323 3.14211 4.93651 3.90792 2.53464 6.2746C-0.843607 9.60335 -0.843607 15.0198 2.53464 18.3485C4.17104 19.961 6.34639 20.8499 8.66235 20.8499C10.9783 20.8499 13.1537 19.961 14.7901 18.3505C15.0302 18.1138 15.249 17.8598 15.4559 17.602C16.981 19.6108 19.4063 20.9192 22.1441 20.9192C24.2081 20.9192 26.0984 20.1765 27.5571 18.9489L27.5708 19.0816C27.6567 19.986 28.43 20.6671 29.336 20.6671C29.3927 20.6671 29.4493 20.6652 29.5059 20.6594C30.4823 20.5671 31.199 19.7147 31.1072 18.7526H31.1052ZM22.1421 17.4192C19.4923 17.4192 17.3384 15.2949 17.3384 12.6858C17.3384 10.0767 19.4942 7.95245 22.1421 7.95245C24.7901 7.95245 26.9459 10.0767 26.9459 12.6858C26.9459 15.2949 24.792 17.4192 22.1421 17.4192Z" fill="var(--fill-0, white)"/>
<path id="Vector_2" d="M34.3956 21C33.4134 21 32.6186 20.215 32.6186 19.249V1.74904C32.6186 0.783123 33.4134 0 34.3956 0C35.3778 0 36.1707 0.783123 36.1707 1.74904V19.249C36.1707 20.215 35.3759 21 34.3956 21Z" fill="var(--fill-0, white)"/>
<path id="Vector_3" d="M39.8047 21C38.8244 21 38.0277 20.215 38.0277 19.249V1.74904C38.0277 0.783123 38.8225 0 39.8047 0C40.787 0 41.5817 0.783123 41.5817 1.74904V19.249C41.5817 20.215 40.787 21 39.8047 21Z" fill="var(--fill-0, white)"/>
<path id="Vector_4" d="M59.9922 18.7507L59.3595 12.0662C59.0373 7.81583 55.4267 4.45245 51.031 4.45245C46.6354 4.45245 42.6772 8.14678 42.6772 12.6858C42.6772 17.2249 46.4245 20.9173 51.031 20.9173C53.0951 20.9173 54.9854 20.1745 56.446 18.9489L56.4577 19.0816C56.5456 19.9879 57.3169 20.6652 58.223 20.6652C58.2796 20.6652 58.3343 20.6633 58.3929 20.6575C59.3693 20.5651 60.0859 19.7108 59.9941 18.7507H59.9922ZM51.031 17.4173C48.3812 17.4173 46.2293 15.2949 46.2293 12.6839C46.2293 10.0728 48.3831 7.95245 51.031 7.95245C53.679 7.95245 55.8348 10.0748 55.8348 12.6839C55.8348 15.293 53.679 17.4173 51.031 17.4173Z" fill="var(--fill-0, white)"/>
</g>
<defs>
<clipPath id="clip0_0_4">
<rect width="60" height="21" fill="white"/>
</clipPath>
</defs>
</svg>
