<?xml version="1.0" encoding="UTF-8"?>
<svg id="Layer_2" data-name="Layer 2" xmlns="http://www.w3.org/2000/svg" viewBox="0 0 307.26 109.14">
  <defs>
    <style>
      .cls-1 {
        fill: #f27490;
      }
    </style>
  </defs>
  <g id="Layer_1-2" data-name="Layer 1">
    <g>
      <path class="cls-1" d="M159.29,97.46l-3.24-34.72c-1.64-22.11-20.14-39.6-42.66-39.6s-41.96,18.44-42.72,41.37c-.04.39-.06.77-.08,1.17-.41,6.35-3.21,12.32-7.72,16.83-10.21,10.21-26.82,10.2-37.03,0-10.21-10.21-10.21-26.83,0-37.03,7.27-7.26,18.17-9.6,27.78-5.99.46.17.93.36,1.38.57,4.58,2.03,9.97-.02,12.01-4.62,2.04-4.58-.03-9.97-4.61-12.01-.79-.35-1.58-.67-2.37-.97-16.28-6.13-34.75-2.15-47.05,10.15-17.3,17.3-17.3,45.45,0,62.75,8.38,8.38,19.52,13,31.38,13s23-4.62,31.38-12.99c1.23-1.23,2.35-2.55,3.41-3.89,7.81,10.44,20.23,17.24,34.25,17.24,10.57,0,20.25-3.86,27.72-10.24l.07.69c.44,4.7,4.4,8.24,9.04,8.24.29,0,.58-.01.87-.04,5-.48,8.67-4.91,8.2-9.91ZM113.39,90.53c-13.57,0-24.6-11.04-24.6-24.6s11.04-24.6,24.6-24.6,24.6,11.04,24.6,24.6-11.03,24.6-24.6,24.6Z"/>
      <path class="cls-1" d="M176.14,109.14c-5.03,0-9.1-4.08-9.1-9.1V9.09c0-5.02,4.07-9.09,9.1-9.09s9.09,4.07,9.09,9.09v90.95c0,5.02-4.07,9.1-9.09,9.1Z"/>
      <path class="cls-1" d="M203.84,109.14c-5.02,0-9.1-4.08-9.1-9.1V9.09c0-5.02,4.07-9.09,9.1-9.09s9.1,4.07,9.1,9.09v90.95c0,5.02-4.07,9.1-9.1,9.1Z"/>
      <path class="cls-1" d="M307.22,97.45l-3.24-34.74c-1.65-22.09-20.14-39.57-42.65-39.57s-42.78,19.2-42.78,42.79,19.19,42.78,42.78,42.78c10.57,0,20.25-3.86,27.73-10.23l.06.69c.45,4.71,4.4,8.23,9.04,8.23.29,0,.57-.01.87-.04,5-.48,8.67-4.92,8.2-9.91ZM261.33,90.52c-13.57,0-24.59-11.03-24.59-24.6s11.03-24.59,24.59-24.59,24.6,11.03,24.6,24.59-11.04,24.6-24.6,24.6Z"/>
    </g>
  </g>
</svg>