<svg fill="none" height="512" viewBox="0 0 20 20" width="512" xmlns="http://www.w3.org/2000/svg"><g fill="rgb(0,0,0)"><path d="m16.5784 5.84948c-2.9947-1.50692-6.73852-1.00896-9.23821 1.49388-2.43786 2.44093-2.9712 6.06664-1.60003 9.02594-.19038-.0923-.37886-.1957-.56493-.3108-.18473-.1144-.27709-.1715-.34693-.1992-.13353-.0529-.2348-.0683-.37799-.0572-.07489.0058-.15973.0278-.3294.0719-1.06788.2771-1.60188.4157-1.98654.3373-.66764-.136-1.189411-.6585-1.325284-1.327-.078284-.3851.060108-.9197.336894-1.9889.04399-.17.06599-.255.07176-.3302.01098-.1434-.00463-.246-.05777-.3796-.02788-.0701-.08487-.1619-.198862-.3455-2.058398-3.31645-.465386-7.33696 1.545402-9.35028 3.31558-3.31976 8.69119-3.31976 12.00679 0 .9752.97644 1.6636 2.13131 2.0651 3.35966z"/><path clip-rule="evenodd" d="m15.7378 19.2246c-2.7337 1.6915-6.10186.3166-7.69017-1.2738-2.73048-2.7339-2.73048-7.1664 0-9.90036 2.73047-2.73392 7.15747-2.73392 9.88797 0 1.6559 1.65803 2.9678 4.96906 1.2727 7.70016-.0939.1513-.1408.2269-.1638.2846-.0438.1101-.0566.1945-.0476.3126.0048.062.0229.1319.0591.2719.228.8805.3419 1.3208.2775 1.638-.1119.5505-.5416.9807-1.0914 1.0928-.3168.0645-.7565-.0496-1.636-.2778-.1397-.0363-.2096-.0544-.2713-.0592-.1179-.0091-.2013.0035-.3113.0471-.0575.0228-.1336.0699-.2857.164zm-4.738-6.2246c0 .5523-.4477 1-1.00003 1-.55228 0-1-.4477-1-1s.44772-1 1-1c.55233 0 1.00003.4477 1.00003 1zm3 0c0 .5523-.4477 1-1 1s-1-.4477-1-1 .4477-1 1-1 1 .4477 1 1zm2 1c.5523 0 1-.4477 1-1s-.4477-1-1-1-1 .4477-1 1 .4477 1 1 1z" fill-rule="evenodd"/></g></svg>
