<svg preserveAspectRatio="none" width="100%" height="100%" overflow="visible" style="display: block;" viewBox="0 0 48.0001 43.9999" fill="none" xmlns="http://www.w3.org/2000/svg">
<g id="Group">
<path id="Vector" d="M44.5 0H3.50003C1.57002 0 0 1.57002 0 3.49994V8.49997C0 10.43 1.57002 12 3.50003 12H44.5001C46.4301 12 48.0001 10.43 48.0001 8.49997V3.49994C48 1.57002 46.43 0 44.5 0Z" fill="var(--fill-0, white)"/>
<path id="Vector_2" d="M46.5 16.9999H33.5C32.672 16.9999 32 17.6719 32 18.4999C32 19.3279 32.672 19.9999 33.5 19.9999H46.5C47.328 19.9999 48 19.3279 48 18.4999C48 17.6719 47.328 16.9999 46.5 16.9999Z" fill="var(--fill-0, white)"/>
<path id="Vector_3" d="M46.5 22.9999H33.5C32.672 22.9999 32 23.6719 32 24.4999C32 25.3279 32.672 25.9999 33.5 25.9999H46.5C47.328 25.9999 48 25.3279 48 24.4999C48 23.6719 47.328 22.9999 46.5 22.9999Z" fill="var(--fill-0, white)"/>
<path id="Vector_4" d="M46.5 28.9999H33.5C32.672 28.9999 32 29.6719 32 30.4999C32 31.3279 32.672 31.9999 33.5 31.9999H46.5C47.328 31.9999 48 31.3279 48 30.4999C48 29.6719 47.328 28.9999 46.5 28.9999Z" fill="var(--fill-0, white)"/>
<path id="Vector_5" d="M46.5 34.9999H33.5C32.672 34.9999 32 35.6719 32 36.4999C32 37.3279 32.672 37.9999 33.5 37.9999H46.5C47.328 37.9999 48 37.3279 48 36.4999C48 35.6719 47.328 34.9999 46.5 34.9999Z" fill="var(--fill-0, white)"/>
<path id="Vector_6" d="M46.5 40.9999H33.5C32.672 40.9999 32 41.6719 32 42.4999C32 43.3279 32.672 43.9999 33.5 43.9999H46.5C47.328 43.9999 48 43.3279 48 42.4999C48 41.6719 47.328 40.9999 46.5 40.9999Z" fill="var(--fill-0, white)"/>
<path id="Vector_7" d="M3.50003 43.9999H24.5C26.42 43.9999 28.0001 42.4199 28.0001 40.4999V20.5C28.0001 18.58 26.42 16.9999 24.5 16.9999H3.50003C1.58003 16.9999 0 18.58 0 20.5V40.5C0 42.42 1.58003 43.9999 3.50003 43.9999ZM8.00003 36V25C8.00003 24.48 8.26006 24 8.72003 23.7199C9.16006 23.44 9.70006 23.4199 10.1801 23.6599L21.1801 29.1599C21.6801 29.4199 22.0001 29.9399 22.0001 30.4999C22.0001 31.06 21.68 31.5799 21.1801 31.84L10.1801 37.3399C9.96009 37.4399 9.72009 37.4999 9.50003 37.4999C9.22006 37.4999 8.96003 37.4199 8.72003 37.2799C8.25997 37 8.00003 36.52 8.00003 36Z" fill="var(--fill-0, white)"/>
</g>
</svg>
