<svg preserveAspectRatio="none" width="100%" height="100%" overflow="visible" style="display: block;" viewBox="0 0 47 47" fill="none" xmlns="http://www.w3.org/2000/svg">
<g id="Group">
<path id="Vector" d="M10.25 33.27C13.36 33.27 15.89 30.74 15.89 27.63C15.89 24.52 13.36 21.99 10.25 21.99C7.14 21.99 4.61 24.52 4.61 27.63C4.61 30.74 7.14 33.27 10.25 33.27Z" fill="var(--fill-0, white)"/>
<path id="Vector_2" d="M36.75 33.27C39.86 33.27 42.39 30.74 42.39 27.63C42.39 24.52 39.86 21.99 36.75 21.99C33.64 21.99 31.11 24.52 31.11 27.63C31.11 30.74 33.64 33.27 36.75 33.27Z" fill="var(--fill-0, white)"/>
<path id="Vector_3" d="M23.5 36.3C27 36.3 29.84 33.46 29.84 29.96C29.84 26.46 27 23.62 23.5 23.62C20 23.62 17.16 26.46 17.16 29.96C17.16 33.46 20 36.3 23.5 36.3Z" fill="var(--fill-0, white)"/>
<path id="Vector_4" d="M23.5 37.8C17.1 37.8 11.89 41.59 11.89 46.25C11.89 46.66 12.23 47 12.64 47H34.35C34.76 47 35.1 46.66 35.1 46.25C35.11 41.59 29.9 37.8 23.5 37.8Z" fill="var(--fill-0, white)"/>
<path id="Vector_5" d="M18.2 37.16C16.29 35.44 13.39 34.4 10.25 34.4C4.6 34.4 0 37.76 0 41.89C0 42.3 0.34 42.64 0.75 42.64H11.3C12.56 40.19 15.05 38.22 18.2 37.16Z" fill="var(--fill-0, white)"/>
<path id="Vector_6" d="M36.75 34.39C33.61 34.39 30.72 35.44 28.8 37.15C31.94 38.21 34.43 40.18 35.69 42.63H46.24C46.65 42.63 46.99 42.29 46.99 41.88C47 37.75 42.4 34.39 36.75 34.39Z" fill="var(--fill-0, white)"/>
<path id="Vector_7" d="M0.93 26.24L3.17 26.72C3.62 23.21 6.62 20.49 10.25 20.49C11.61 20.49 12.86 20.89 13.94 21.55C14.85 17.1 18.78 13.76 23.5 13.76C28.22 13.76 32.15 17.11 33.06 21.55C34.14 20.89 35.4 20.49 36.75 20.49C40.38 20.49 43.38 23.21 43.83 26.72L46.07 26.24C46.61 26.12 47 25.64 47 25.09V21.92C47 21.36 46.61 20.88 46.07 20.77L42.82 20.08C42.31 17.22 41.19 14.57 39.59 12.28L41.4 9.49C41.7 9.02 41.64 8.41 41.24 8.02L39 5.76C38.61 5.37 37.99 5.3 37.52 5.6L34.73 7.41C32.44 5.81 29.79 4.68 26.93 4.18L26.24 0.93C26.12 0.39 25.64 0 25.09 0H21.92C21.36 0 20.88 0.39 20.77 0.93L20.08 4.18C17.22 4.68 14.57 5.81 12.28 7.41L9.48 5.61C9.01 5.3 8.4 5.37 8 5.76L5.76 8C5.37 8.4 5.3 9.01 5.61 9.48L7.42 12.27C5.82 14.56 4.69 17.21 4.19 20.07L0.94 20.76C0.4 20.88 0.00999999 21.36 0.00999999 21.91V25.08C-1.11759e-08 25.64 0.39 26.12 0.93 26.24Z" fill="var(--fill-0, white)"/>
</g>
</svg>
