<svg preserveAspectRatio="none" width="100%" height="100%" overflow="visible" style="display: block;" viewBox="0 0 32 32" fill="none" xmlns="http://www.w3.org/2000/svg">
<g id="ico-warning">
<path id="Vector" d="M30.6538 21.7632L20.8586 4.82883C19.8986 3.12965 18.1386 2.10563 16.1866 2.10563C14.2314 2.10563 12.4714 3.12965 11.5114 4.82883L1.71624 21.7952C0.756243 23.4912 0.756243 25.5392 1.74825 27.2352C2.70825 28.9024 4.43624 29.8944 6.38824 29.8944H25.9498C27.9018 29.8944 29.6618 28.8704 30.6538 27.1712C31.649 25.4752 31.649 23.4592 30.6538 21.7632ZM16.1834 25.5872C15.2202 25.5872 14.433 24.8 14.433 23.8368C14.433 22.8736 15.2202 22.0896 16.1834 22.0896C17.1466 22.0896 17.9338 22.8736 17.8954 23.872C17.9338 24.7648 17.1114 25.5872 16.1834 25.5872ZM17.825 14.3072C17.7546 15.664 17.6842 16.9824 17.5754 18.3392C17.5402 18.768 17.5402 19.1616 17.5402 19.5904C17.505 20.304 16.9322 20.8384 16.2186 20.8384C15.505 20.8384 14.9706 20.3392 14.897 19.6256C14.7562 17.5904 14.6474 15.52 14.5418 13.4144C14.5066 12.8448 14.4714 12.3072 14.433 11.7376C14.433 10.8448 14.9354 10.0576 15.7898 9.84644C16.6122 9.63202 17.4698 10.0576 17.825 10.8448C17.9338 11.1296 17.969 11.4144 17.969 11.7025C17.9338 12.5568 17.8602 13.4496 17.825 14.3072Z" fill="var(--fill-0, white)"/>
</g>
</svg>
