<svg preserveAspectRatio="none" width="100%" height="100%" overflow="visible" style="display: block;" viewBox="0 0 44.1812 44.081" fill="none" xmlns="http://www.w3.org/2000/svg">
<g id="layer1">
<path id="path823" fill-rule="evenodd" clip-rule="evenodd" d="M36.1686 0C32.4595 0 29.3367 2.57608 28.4377 6.01727H2.11112C2.04205 6.01369 1.97283 6.01369 1.90376 6.01727C1.37204 6.04486 0.873047 6.28252 0.516535 6.67798C0.160023 7.07344 -0.0248129 7.59431 0.00268126 8.12604C0.0301754 8.65777 0.267748 9.1568 0.663146 9.51338C1.05854 9.86996 1.57939 10.0549 2.11112 10.0275H28.4416C29.3461 13.4607 32.4651 16.0291 36.1686 16.0291C40.5701 16.0291 44.1812 12.418 44.1812 8.01651C44.1812 3.61498 40.5701 0 36.1686 0ZM36.1686 4.0063C38.4049 4.0063 40.1749 5.78013 40.1749 8.01651C40.1749 10.2528 38.4049 12.0228 36.1686 12.0228C33.9322 12.0228 32.1584 10.2528 32.1584 8.01651C32.1584 5.78013 33.9322 4.0063 36.1686 4.0063ZM22.1504 14.0338C18.4423 14.0338 15.3195 16.5989 14.4195 20.0354H2.11112C2.04205 20.0318 1.97283 20.0318 1.90376 20.0354C1.37211 20.0631 0.873215 20.3008 0.516784 20.6962C0.160352 21.0917 -0.024435 21.6125 0.00305581 22.1442C0.0305466 22.6758 0.268065 23.1748 0.663381 23.5314C1.0587 23.8879 1.57945 24.0729 2.11112 24.0456H14.4234C15.3279 27.4789 18.447 30.0472 22.1504 30.0472C25.8539 30.0472 28.9606 27.4789 29.8618 24.0456H42.1702C42.702 24.0456 43.212 23.8344 43.588 23.4583C43.9641 23.0823 44.1753 22.5723 44.1753 22.0405C44.1753 21.5087 43.9641 20.9987 43.588 20.6227C43.212 20.2467 42.702 20.0354 42.1702 20.0354H29.8657C28.969 16.5989 25.8586 14.0338 22.1504 14.0338ZM22.1504 18.0244C24.3868 18.0244 26.1567 19.7983 26.1567 22.0346C26.1567 24.271 24.3868 26.0409 22.1504 26.0409C19.9141 26.0409 18.1402 24.271 18.1402 22.0346C18.1402 19.7983 19.9141 18.0244 22.1504 18.0244ZM8.11665 28.0519C3.71515 28.0519 0.100144 31.6631 0.100144 36.0645C0.100144 40.466 3.71515 44.081 8.11665 44.081C11.8248 44.081 14.9437 41.5036 15.8436 38.0638H42.1702C42.702 38.0638 43.212 37.8525 43.588 37.4765C43.9641 37.1004 44.1753 36.5904 44.1753 36.0586C44.1753 35.5269 43.9641 35.0169 43.588 34.6408C43.212 34.2648 42.702 34.0535 42.1702 34.0535H15.8397C14.9353 30.6203 11.8201 28.0519 8.11665 28.0519ZM8.11665 32.0582C10.353 32.0582 12.123 33.8282 12.123 36.0645C12.123 38.3009 10.353 40.0747 8.11665 40.0747C5.88031 40.0747 4.10644 38.3009 4.10644 36.0645C4.10644 33.8282 5.88031 32.0582 8.11665 32.0582Z" fill="var(--fill-0, white)"/>
</g>
</svg>
