<svg preserveAspectRatio="none" width="100%" height="100%" overflow="visible" style="display: block;" viewBox="0 0 75.6113 13.3174" fill="none" xmlns="http://www.w3.org/2000/svg">
<g id="star">
<path d="M2.66759 13.1797C2.51134 13.0547 2.41759 12.8984 2.38634 12.7109C2.3603 12.5182 2.39155 12.2917 2.48009 12.0312L3.71447 8.34375L0.558216 6.07812C0.334257 5.92188 0.175403 5.75521 0.0816532 5.57812C-0.0120968 5.40104 -0.0251176 5.21875 0.0425907 5.03125C0.105091 4.84375 0.224882 4.70833 0.401966 4.625C0.579049 4.53646 0.803007 4.49219 1.07384 4.49219H4.94884L6.12853 0.8125C6.21707 0.552083 6.32905 0.351562 6.46447 0.210938C6.59988 0.0703125 6.76655 0 6.96447 0C7.16238 0 7.32905 0.0703125 7.46447 0.210938C7.60509 0.351562 7.71707 0.552083 7.8004 0.8125L8.98009 4.49219H12.8473C13.1285 4.49219 13.3551 4.53646 13.527 4.625C13.704 4.70833 13.8238 4.84375 13.8863 5.03125C13.9488 5.21875 13.9332 5.40104 13.8395 5.57812C13.7509 5.75521 13.5947 5.92188 13.3707 6.07812L10.2067 8.34375L11.4488 12.0312C11.5374 12.2917 11.566 12.5182 11.5348 12.7109C11.5035 12.8984 11.4098 13.0547 11.2535 13.1797C11.0973 13.2995 10.9202 13.3411 10.7223 13.3047C10.5296 13.2734 10.3212 13.1745 10.0973 13.0078L6.96447 10.7031L3.83165 13.0078C3.60769 13.1745 3.39676 13.2734 3.19884 13.3047C3.00613 13.3411 2.82905 13.2995 2.66759 13.1797Z" fill="var(--fill-0, #FE5C17)"/>
<path d="M18.0895 13.1797C17.9332 13.0547 17.8395 12.8984 17.8082 12.7109C17.7822 12.5182 17.8134 12.2917 17.902 12.0312L19.1363 8.34375L15.9801 6.07812C15.7561 5.92188 15.5973 5.75521 15.5035 5.57812C15.4098 5.40104 15.3968 5.21875 15.4645 5.03125C15.527 4.84375 15.6468 4.70833 15.8238 4.625C16.0009 4.53646 16.2249 4.49219 16.4957 4.49219H20.3707L21.5504 0.8125C21.6389 0.552083 21.7509 0.351562 21.8863 0.210938C22.0218 0.0703125 22.1884 0 22.3863 0C22.5843 0 22.7509 0.0703125 22.8863 0.210938C23.027 0.351562 23.1389 0.552083 23.2223 0.8125L24.402 4.49219H28.2692C28.5504 4.49219 28.777 4.53646 28.9488 4.625C29.1259 4.70833 29.2457 4.84375 29.3082 5.03125C29.3707 5.21875 29.3551 5.40104 29.2613 5.57812C29.1728 5.75521 29.0165 5.92188 28.7926 6.07812L25.6285 8.34375L26.8707 12.0312C26.9593 12.2917 26.9879 12.5182 26.9567 12.7109C26.9254 12.8984 26.8317 13.0547 26.6754 13.1797C26.5192 13.2995 26.3421 13.3411 26.1442 13.3047C25.9514 13.2734 25.7431 13.1745 25.5192 13.0078L22.3863 10.7031L19.2535 13.0078C19.0296 13.1745 18.8186 13.2734 18.6207 13.3047C18.428 13.3411 18.2509 13.2995 18.0895 13.1797Z" fill="var(--fill-0, #FE5C17)"/>
<path d="M33.5113 13.1797C33.3551 13.0547 33.2613 12.8984 33.2301 12.7109C33.204 12.5182 33.2353 12.2917 33.3238 12.0312L34.5582 8.34375L31.402 6.07812C31.178 5.92188 31.0192 5.75521 30.9254 5.57812C30.8317 5.40104 30.8186 5.21875 30.8863 5.03125C30.9488 4.84375 31.0686 4.70833 31.2457 4.625C31.4228 4.53646 31.6468 4.49219 31.9176 4.49219H35.7926L36.9723 0.8125C37.0608 0.552083 37.1728 0.351562 37.3082 0.210938C37.4436 0.0703125 37.6103 0 37.8082 0C38.0061 0 38.1728 0.0703125 38.3082 0.210938C38.4488 0.351562 38.5608 0.552083 38.6442 0.8125L39.8238 4.49219H43.691C43.9723 4.49219 44.1988 4.53646 44.3707 4.625C44.5478 4.70833 44.6676 4.84375 44.7301 5.03125C44.7926 5.21875 44.777 5.40104 44.6832 5.57812C44.5947 5.75521 44.4384 5.92188 44.2145 6.07812L41.0504 8.34375L42.2926 12.0312C42.3811 12.2917 42.4098 12.5182 42.3785 12.7109C42.3473 12.8984 42.2535 13.0547 42.0973 13.1797C41.941 13.2995 41.7639 13.3411 41.566 13.3047C41.3733 13.2734 41.165 13.1745 40.941 13.0078L37.8082 10.7031L34.6754 13.0078C34.4514 13.1745 34.2405 13.2734 34.0426 13.3047C33.8499 13.3411 33.6728 13.2995 33.5113 13.1797Z" fill="var(--fill-0, #FE5C17)"/>
<path d="M48.9332 13.1797C48.777 13.0547 48.6832 12.8984 48.652 12.7109C48.6259 12.5182 48.6572 12.2917 48.7457 12.0312L49.9801 8.34375L46.8238 6.07812C46.5999 5.92188 46.441 5.75521 46.3473 5.57812C46.2535 5.40104 46.2405 5.21875 46.3082 5.03125C46.3707 4.84375 46.4905 4.70833 46.6676 4.625C46.8447 4.53646 47.0686 4.49219 47.3395 4.49219H51.2145L52.3942 0.8125C52.4827 0.552083 52.5947 0.351562 52.7301 0.210938C52.8655 0.0703125 53.0322 0 53.2301 0C53.428 0 53.5947 0.0703125 53.7301 0.210938C53.8707 0.351562 53.9827 0.552083 54.066 0.8125L55.2457 4.49219H59.1129C59.3942 4.49219 59.6207 4.53646 59.7926 4.625C59.9697 4.70833 60.0895 4.84375 60.152 5.03125C60.2145 5.21875 60.1988 5.40104 60.1051 5.57812C60.0165 5.75521 59.8603 5.92188 59.6363 6.07812L56.4723 8.34375L57.7145 12.0312C57.803 12.2917 57.8317 12.5182 57.8004 12.7109C57.7692 12.8984 57.6754 13.0547 57.5192 13.1797C57.3629 13.2995 57.1858 13.3411 56.9879 13.3047C56.7952 13.2734 56.5869 13.1745 56.3629 13.0078L53.2301 10.7031L50.0973 13.0078C49.8733 13.1745 49.6624 13.2734 49.4645 13.3047C49.2718 13.3411 49.0947 13.2995 48.9332 13.1797Z" fill="var(--fill-0, #FE5C17)"/>
<path d="M64.3551 13.1797C64.1988 13.0547 64.1051 12.8984 64.0738 12.7109C64.0478 12.5182 64.079 12.2917 64.1676 12.0312L65.402 8.34375L62.2457 6.07812C62.0218 5.92188 61.8629 5.75521 61.7692 5.57812C61.6754 5.40104 61.6624 5.21875 61.7301 5.03125C61.7926 4.84375 61.9124 4.70833 62.0895 4.625C62.2665 4.53646 62.4905 4.49219 62.7613 4.49219H66.6363L67.816 0.8125C67.9046 0.552083 68.0165 0.351562 68.152 0.210938C68.2874 0.0703125 68.454 0 68.652 0C68.8499 0 69.0165 0.0703125 69.152 0.210938C69.2926 0.351562 69.4046 0.552083 69.4879 0.8125L70.6676 4.49219H74.5348C74.816 4.49219 75.0426 4.53646 75.2145 4.625C75.3915 4.70833 75.5113 4.84375 75.5738 5.03125C75.6363 5.21875 75.6207 5.40104 75.527 5.57812C75.4384 5.75521 75.2822 5.92188 75.0582 6.07812L71.8941 8.34375L73.1363 12.0312C73.2249 12.2917 73.2535 12.5182 73.2223 12.7109C73.191 12.8984 73.0973 13.0547 72.941 13.1797C72.7848 13.2995 72.6077 13.3411 72.4098 13.3047C72.2171 13.2734 72.0087 13.1745 71.7848 13.0078L68.652 10.7031L65.5191 13.0078C65.2952 13.1745 65.0843 13.2734 64.8863 13.3047C64.6936 13.3411 64.5165 13.2995 64.3551 13.1797Z" fill="var(--fill-0, #FE5C17)"/>
</g>
</svg>
